<?xml version="1.0" encoding="UTF-8"?>
<svg id="Layer_1" data-name="Layer 1" xmlns="http://www.w3.org/2000/svg" viewBox="0 0 744.44 744.58">
  <path d="M674.06,744.22l-609.27.36c-35.25-6.53-58.4-29.53-64.79-64.8L.19,71.51C.2,34.4,31.82.55,69.56.52l608.63-.52c35.54,5.32,59.91,29.27,66.26,64.82l-.21,608.3c-.01,37.16-31.47,71.09-70.18,71.11ZM337.27,358.22c23.55-14.04,35.93-32.36,39.76-52.6,8.63-45.6-25.24-87.76-74.44-90.38-6.63-.58-14.5-2.2-21.1-2.21l-147.09-.21.02,310.27,115.16-.32,61.01-2.05c42-1.41,73.61-30.89,81.37-71.55,7.92-41.45-13.81-77.55-54.69-90.95ZM568.04,275.1l-.15-41.28-121.77.02-.08,41.2,122,.06ZM548.56,450.74c-5.52,24.46-23.87,35.08-46.25,31.07-24.45-4.38-40.9-28.9-37.12-53.71l146.84-.24c-.4-21.25-1.88-40.63-6.57-59.33-10.37-41.31-42.04-68.93-83.75-74.52-49.63-6.66-95.95,19.15-111.75,67.43-10.6,32.38-10.55,67.27-.13,99.69,12.51,38.94,45.66,62.66,85.91,65.94,50.66,4.13,93.38-12.38,112.73-65.88l-59.89-10.44Z" style="fill: #fff;"/>
  <path d="M328.46,430.26c0,21.54-14.38,37.06-35.66,38.34-31.49,1.88-62.82,1.23-95.38,1.15l-.02-81.01,90,.78c23.68.21,41.05,16.12,41.05,40.74Z" style="fill: #fff;"/>
  <path d="M282.77,334.66l-36.72,1.37-48.52.1-.16-70.43c30.82-.41,61.31-1.11,92.07,1.6,19.03,1.67,28.95,19.47,27.68,35.83-1.34,17.22-14.28,30.79-34.36,31.53Z" style="fill: #fff;"/>
  <path d="M551.57,391.18l-86.83.05c-.64-14.85,3.32-29.03,13.24-39.11,16.78-17.04,41.65-17.21,59.3-1.67,9.83,10.69,15.21,23.46,14.28,40.74Z" style="fill: #fff;"/>
</svg>