<?xml version="1.0" encoding="UTF-8"?>
<svg id="Layer_1" data-name="Layer 1" xmlns="http://www.w3.org/2000/svg" viewBox="0 0 706.27 707.42">
  <path d="M642.05,707.42l-577.98-.04c-35.79,0-64.07-28.59-64.07-65.68V69.88C0,28.42,29.88.04,71.12.04L636.12,0c41.18,0,70.15,27.69,70.15,68.22l-.04,575.19c0,35.81-27.45,64.01-64.19,64.01ZM624.9,545.12l-.02-408.83-542.37.03v408.82s542.38-.02,542.38-.02Z" style="fill: #fff;"/>
  <path d="M371.69,367c-12.11,9.94-26.55,8.49-36.47-2.39l-187.92-190.55h416.13s-191.74,192.95-191.74,192.95Z" style="fill: #fff;"/>
  <path d="M424.5,367.91l135.74,139.09-412.57-.06,136.45-139.7,29.92,29.94c23.49,18.82,57.32,19.11,80.81.13l29.65-29.41Z" style="fill: #fff;"/>
  <polygon points="257.52 340.05 120.9 479.35 121.03 202.15 257.52 340.05" style="fill: #fff;"/>
  <polygon points="587.12 479.77 451.25 340.79 587.15 204.36 587.12 479.77" style="fill: #fff;"/>
</svg>