<?xml version="1.0" encoding="UTF-8"?>
<svg id="Layer_1" data-name="Layer 1" xmlns="http://www.w3.org/2000/svg" viewBox="0 0 709.84 708.15">
  <path d="M558.74,708.14H151.71C68.52,701.24,6.99,639.23.04,556.32l-.04-403.6C7.17,75.96,65.1,5.83,146.9,3.26c137.55-4.33,278.47-4.36,416.01.01,81.79,2.6,139.8,72.65,146.92,149.42l-.06,403.58c-6.78,82.42-67.81,144.49-151.04,151.87ZM167.75,137.53c-26.59,7.39-40.44,36.86-33.37,60.47,7.97,26.63,35.82,42.07,60.86,34.78,27.03-7.86,41.81-34.86,34.82-60.9-7.27-27.05-33.95-42.24-62.31-34.36ZM231.48,574.64l.22-299.5-99.52.12.03,299.26,99.27.11ZM482.73,575.01l94.87-.48.11-166c-1.22-16.93-2.71-33.85-4.71-49.26-6.99-53.91-46.89-84.4-99.51-84.67-37.56-.19-73.74,7.7-97.45,42.84-1.05-15.85-.85-27.66-1.06-42.32l-91.74.18.09,299.57,95.38-.36.75-174.35c5.51-30.32,24.79-46.39,53.94-46.21,21.97.14,40.55,10.65,44.95,34.98,2.23,12.31,2.82,26.33,4.22,40.09l.17,146Z" style="fill: #fff;"/>
</svg>