<?xml version="1.0" encoding="UTF-8"?>
<svg id="Layer_1" data-name="Layer 1" xmlns="http://www.w3.org/2000/svg" viewBox="0 0 600.78 709.72">
  <path d="M75.34,69.97c-5.14,0-7.31,2.68-7.31,6.69l.03,562.61,284.27.12.1,69.62H58.5C29.98,705.02,0,680.87,0,649.49L.17,59.85C.18,23.96,36.61-.06,69.28,0l434.99.8c31.98.06,56.94,28.63,61,58.64l-.16,330.87-68.43.33.15-314.07c0-3.58-2.79-6.59-6.47-6.59H75.34Z" style="fill: #fff;"/>
  <polygon points="495.51 709.72 390.05 603.85 459.73 603.17 459.68 462.36 530.05 461.83 529.76 603.23 600.78 603.93 495.51 709.72" style="fill: #fff;"/>
  <path d="M388.31,424.56l-211.59.05c2.1-18.07-3.93-36.64,1.85-53.52,7.32-21.41,30.74-36.1,51.96-43.24,32.74-11.02,66.94-11.12,99.93-.88,22.95,7.12,47.79,22.66,56.01,45.44,5.8,16.08-.59,33.48,1.85,52.15Z" style="fill: #fff;"/>
  <path d="M274.77,142.45c39.85-4.59,73.45,25.13,77.61,62.35,4.35,38.9-23.75,73.22-62.21,77.75-37.9,4.47-73.17-23.64-77.6-61.14-4.55-38.46,21.86-74.32,62.2-78.96Z" style="fill: #fff;"/>
</svg>